<?xml version="1.0" standalone="no"?>
<!DOCTYPE svg PUBLIC "-//W3C//DTD SVG 1.1//EN" "http://www.w3.org/Graphics/SVG/1.1/DTD/svg11.dtd" >
<svg xmlns="http://www.w3.org/2000/svg" xmlns:xlink="http://www.w3.org/1999/xlink" version="1.1">
<metadata>
Created by FontForge 20200314 at Thu Mar  2 21:38:00 2000
 By User Azfonts
Copyright (c) ShyFonts Type Foundry, 1999. All rights reserved. STAR WARS, THE EMPIRE STRIKES BACK, RETURN OF THE JEDI, and all STAR WARS logos are TM and (c) LucasFilm, Ltd.
</metadata>
<defs>
<font id="SFDistantGalaxy" horiz-adv-x="1536" >
  <font-face 
    font-family="SF Distant Galaxy"
    font-weight="400"
    font-stretch="normal"
    units-per-em="2048"
    panose-1="0 0 4 0 0 0 0 0 0 0"
    ascent="1638"
    descent="-410"
    x-height="1365"
    cap-height="1365"
    bbox="-254 -340 2415 1707"
    underline-thickness="20"
    underline-position="-143"
    unicode-range="U+0020-201B"
  />
<missing-glyph horiz-adv-x="1024" 
 />
    <glyph glyph-name=".notdef" horiz-adv-x="1024" 
 />
    <glyph glyph-name="exclam" unicode="!" horiz-adv-x="427" 
d="M384 1365l-34 -938h-273l-34 938h341zM384 171q0 -70 -51 -121q-50 -50 -120 -50t-120 50q-50 52 -50 121q0 70 50 120t120 50t120 -50q51 -50 51 -120z" />
    <glyph glyph-name="quotedbl" unicode="&#x22;" horiz-adv-x="853" 
d="M811 1195q0 -60 -26 -129t-75 -132q-63 -77 -121 -81l51 171q-69 0 -121 50q-50 52 -50 121q0 68 51 119q52 51 120 51t119 -51q52 -51 52 -119zM384 1195q0 -60 -25 -129t-76 -132q-63 -77 -121 -81l51 171q-70 0 -120 50q-50 52 -50 121q0 68 51 119t119 51
q69 0 120 -51t51 -119z" />
    <glyph glyph-name="numbersign" unicode="#" horiz-adv-x="1364" 
d="M1321 1152l-44 -256h-214l-37 -213h213l-44 -256h-214l-39 -214h-256l39 214h-213l-39 -214h-256l39 214h-213l44 256h213l38 213h-213l44 256h213l40 213h256l-40 -213h214l39 213h256l-39 -213h213zM807 896h-213l-38 -213h214z" />
    <glyph glyph-name="dollar" unicode="$" horiz-adv-x="1451" 
d="M1408 939h-543q-34 0 -34 -40q0 -10 5 -13l248 -186q153 -116 153 -311q0 -137 -104 -247q-99 -105 -237 -133v-178h-341v169h-512v427h507q34 0 34 41q0 7 -5 12l-231 169q-135 99 -135 302q0 144 100 259q101 116 242 147v179h341v-171h512v-426z" />
    <glyph glyph-name="percent" unicode="%" horiz-adv-x="1727" 
d="M1684 341q0 -136 -102 -239q-102 -102 -239 -102q-136 0 -239 102q-102 103 -102 239q0 137 102 239q103 103 239 103q137 0 239 -103q102 -102 102 -239zM1258 1266l-468 -1281l-321 114l468 1283zM725 1024q0 -137 -102 -239t-239 -102t-239 102t-102 239t102 239
t239 102t239 -102t102 -239zM1471 341q0 52 -39 90q-38 38 -89 38q-50 0 -90 -38q-38 -38 -38 -90q0 -50 38 -90q40 -38 90 -38q51 0 89 38q39 39 39 90zM512 1024q0 51 -39 89q-38 39 -89 39t-90 -39q-38 -38 -38 -89q0 -50 38 -90q40 -38 90 -38q51 0 89 38q39 39 39 90z
" />
    <glyph glyph-name="ampersand" unicode="&#x26;" horiz-adv-x="1451" 
d="M1408 0h-939q-173 0 -300 125q-126 126 -126 300q0 146 85 258q-85 110 -85 251q0 177 124 304t302 127h939v-392h-853q-52 0 -52 -60q0 -51 52 -51h256v-359h-256q-52 0 -52 -56q0 -54 52 -54h420v256h433v-649z" />
    <glyph glyph-name="quotesingle" unicode="'" horiz-adv-x="427" 
d="M384 1195q0 -60 -25 -129t-76 -132q-63 -77 -121 -81l51 171q-70 0 -120 50q-50 52 -50 121q0 68 51 119t119 51q69 0 120 -51t51 -119z" />
    <glyph glyph-name="parenleft" unicode="(" horiz-adv-x="597" 
d="M555 -169h-256q-256 367 -256 852t256 853h256q-171 -401 -171 -853q0 -453 171 -852z" />
    <glyph glyph-name="parenright" unicode=")" horiz-adv-x="597" 
d="M555 683q0 -485 -256 -852h-256q170 400 170 852q0 451 -170 853h256q256 -370 256 -853z" />
    <glyph glyph-name="asterisk" unicode="*" horiz-adv-x="778" 
d="M736 908l-103 -178l-141 82v-163h-205v163l-142 -82l-102 178l141 82l-141 82l102 177l142 -82v164h205v-164l141 82l103 -177l-142 -82z" />
    <glyph glyph-name="plus" unicode="+" horiz-adv-x="768" 
d="M725 555h-213v-214h-256v214h-213v256h213v213h256v-213h213v-256z" />
    <glyph glyph-name="comma" unicode="," horiz-adv-x="427" 
d="M384 171q0 -60 -25 -128.5t-76 -131.5q-63 -77 -121 -80l51 169q-70 0 -120 50q-50 52 -50 121q0 68 51 119t119 51q69 0 120 -51t51 -119z" />
    <glyph glyph-name="hyphen" unicode="-" horiz-adv-x="768" 
d="M725 555h-682v256h682v-256z" />
    <glyph glyph-name="period" unicode="." horiz-adv-x="427" 
d="M384 171q0 -70 -51 -121q-50 -50 -120 -50t-120 50q-50 52 -50 121q0 70 50 120t120 50t120 -50q51 -50 51 -120z" />
    <glyph glyph-name="slash" unicode="/" horiz-adv-x="905" 
d="M905 1427l-584 -1603l-321 116l584 1603z" />
    <glyph glyph-name="zero" unicode="0" 
d="M1493 683q0 -287 -222 -488q-213 -195 -503 -195t-503 195q-222 201 -222 488q0 285 222 488q214 194 503 194t503 -194q222 -203 222 -488zM1033 683q0 103 -81 180q-79 76 -184 76q-107 0 -186 -76t-79 -180t79 -180t186 -76q106 0 185 76q80 77 80 180z" />
    <glyph glyph-name="one" unicode="1" horiz-adv-x="734" 
d="M691 0h-478v973h-170l170 392h478v-1365z" />
    <glyph glyph-name="two" unicode="2" 
d="M1493 0h-1450v432q0 168 128 299q129 131 298 131h512q52 0 52 51q0 60 -52 60h-853v392h939q170 0 298 -131t128 -300q0 -170 -129 -300q-128 -131 -297 -131h-512q-38 0 -48 -40q-4 -15 -4 -70h990v-393z" />
    <glyph glyph-name="three" unicode="3" horiz-adv-x="1451" 
d="M1408 425q0 -174 -127 -300q-127 -125 -300 -125h-938v393h853q51 0 51 54q0 56 -51 56h-512v359h512q51 0 51 51q0 60 -51 60h-853v392h938q178 0 302 -127q125 -128 125 -304q0 -139 -85 -251q85 -112 85 -258z" />
    <glyph glyph-name="four" unicode="4" 
d="M1493 256h-85v-256h-478v256h-887l170 939h495l-94 -512h316v682h478v-682h85v-427z" />
    <glyph glyph-name="five" unicode="5" 
d="M1493 432q0 -171 -128 -302q-127 -130 -298 -130h-1024v393h938q52 0 52 59q0 51 -52 51h-938v862h1365v-392h-905v-111h564q169 0 297 -131q129 -131 129 -299z" />
    <glyph glyph-name="six" unicode="6" 
d="M1493 432q0 -171 -128 -302q-127 -130 -298 -130h-598q-169 0 -298 129q-128 131 -128 301v509q0 169 128 297q129 129 298 129h939v-392h-853q-52 0 -52 -51q0 -60 52 -60h512q169 0 297 -131q129 -131 129 -299zM1033 452q0 51 -52 51h-426q-52 0 -52 -51q0 -59 52 -59
h426q52 0 52 59z" />
    <glyph glyph-name="seven" unicode="7" 
d="M1493 1365l-904 -1365h-546l645 973h-645v392h1450z" />
    <glyph glyph-name="eight" unicode="8" 
d="M1493 396q0 -162 -131 -279t-295 -117h-598q-166 0 -293 114q-133 120 -133 284q0 187 150 309q-116 114 -116 278q0 158 136 273q128 107 290 107h530q166 0 293 -109q133 -114 133 -276q0 -159 -116 -273q150 -120 150 -311zM998 913q0 60 -51 60h-358q-51 0 -51 -60
q0 -51 51 -51h358q51 0 51 51zM1033 444q0 59 -52 59h-426q-52 0 -52 -59q0 -51 52 -51h426q52 0 52 51z" />
    <glyph glyph-name="nine" unicode="9" 
d="M1493 427q0 -169 -129 -298q-128 -129 -297 -129h-939v393h853q52 0 52 51q0 59 -52 59h-512q-169 0 -298 131q-128 131 -128 300t128 300t298 131h598q171 0 298 -130q128 -130 128 -300v-508zM1033 913q0 60 -52 60h-426q-52 0 -52 -60q0 -51 52 -51h426q52 0 52 51z
" />
    <glyph glyph-name="colon" unicode=":" horiz-adv-x="427" 
d="M384 853q0 -71 -51 -120q-50 -50 -120 -50t-120 50t-50 120t50 120q49 51 120 51q70 0 120 -51q51 -50 51 -120zM384 171q0 -70 -51 -121q-50 -50 -120 -50t-120 50q-50 52 -50 121q0 70 50 120t120 50t120 -50q51 -50 51 -120z" />
    <glyph glyph-name="semicolon" unicode=";" horiz-adv-x="427" 
d="M384 853q0 -71 -51 -120q-50 -50 -120 -50t-120 50t-50 120t50 120q49 51 120 51q70 0 120 -51q51 -50 51 -120zM384 171q0 -60 -25 -128.5t-76 -131.5q-63 -77 -121 -80l51 169q-70 0 -120 50q-50 52 -50 121q0 68 51 119t119 51q69 0 120 -51t51 -119z" />
    <glyph glyph-name="less" unicode="&#x3c;" horiz-adv-x="597" 
d="M555 256h-342l-170 427l170 426h342l-171 -426z" />
    <glyph glyph-name="equal" unicode="=" horiz-adv-x="939" 
d="M896 725h-853v256h853v-256zM896 384h-853v256h853v-256z" />
    <glyph glyph-name="greater" unicode="&#x3e;" horiz-adv-x="597" 
d="M555 683l-171 -427h-341l170 427l-170 426h341z" />
    <glyph glyph-name="question" unicode="?" horiz-adv-x="1280" 
d="M1237 934q0 -170 -129 -300q-128 -131 -297 -131h-359q-71 0 -68 -110h-341v39q0 168 128 299q129 131 298 131h256q52 0 52 51q0 60 -52 60h-682v392h768q170 0 298 -131t128 -300zM384 171q0 -70 -51 -121q-50 -50 -120 -50t-120 50q-50 52 -50 121q0 70 50 120t120 50
t120 -50q51 -50 51 -120z" />
    <glyph glyph-name="at" unicode="@" horiz-adv-x="1246" 
d="M1203 683q0 -238 -172 -410q-171 -171 -408 -171t-409 171q-171 172 -171 410q0 237 171 408q172 172 409 172q234 0 407 -173t173 -407zM1033 683q0 165 -123 287q-122 122 -287 122q-166 0 -288 -122t-122 -287q0 -166 122 -288t288 -122q165 0 287 122
q123 121 123 288zM916 427h-204l-16 63h-146l-18 -63h-204l135 512h320zM666 606l-43 162l-43 -162h86z" />
    <glyph glyph-name="A" unicode="A" horiz-adv-x="1621" 
d="M1579 0h-529l-45 171h-389l-44 -171h-529l358 1365h819zM915 512l-104 398l-104 -398h208z" />
    <glyph glyph-name="B" unicode="B" 
d="M1493 398q0 -176 -155 -292q-142 -106 -323 -106h-972v1365h887q182 0 324 -107q154 -118 154 -294q0 -136 -84 -242q169 -114 169 -324zM964 922q0 41 -31 71q-30 31 -71 31h-341v-205h341q41 0 71 31q31 31 31 72zM981 444q0 41 -31 71q-30 31 -71 31h-358v-205h358
q41 0 71 31q31 31 31 72z" />
    <glyph glyph-name="C" unicode="C" horiz-adv-x="1365" 
d="M1323 0h-555q-290 0 -503 195q-222 201 -222 488q0 285 222 488q214 194 503 194h555v-426h-555q-105 0 -185 -76q-80 -77 -80 -180q0 -104 79 -180t186 -76h555v-427z" />
    <glyph glyph-name="D" unicode="D" 
d="M1493 683q0 -287 -222 -488q-213 -195 -503 -195h-725v1365h725q289 0 503 -194q222 -203 222 -488zM1033 683q0 103 -81 180q-79 76 -184 76h-247v-512h247q106 0 185 76q80 77 80 180z" />
    <glyph glyph-name="E" unicode="E" horiz-adv-x="1451" 
d="M1408 0h-1365v1365h1365v-426h-853v-77h512v-359h-512v-76h853v-427z" />
    <glyph glyph-name="F" unicode="F" horiz-adv-x="1451" 
d="M1408 939h-853v-77h512v-359h-512v-503h-512v1365h1365v-426z" />
    <glyph glyph-name="G" unicode="G" 
d="M1493 0h-725q-290 0 -503 195q-222 201 -222 488q0 285 222 488q214 194 503 194q282 0 497 -186l-313 -312q-83 72 -184 72q-105 0 -185 -76q-80 -77 -80 -180q0 -104 79 -180t186 -76h213v256h512v-683z" />
    <glyph glyph-name="H" unicode="H" 
d="M1493 0h-512v503h-426v-503h-512v1365h512v-503h426v503h512v-1365z" />
    <glyph glyph-name="I" unicode="I" horiz-adv-x="597" 
d="M555 0h-512v1365h512v-1365z" />
    <glyph glyph-name="J" unicode="J" horiz-adv-x="896" 
d="M853 85q0 -277 -244 -368q-146 -57 -481 -57l-85 425q169 0 223 16q127 34 127 155v1109h460v-1280z" />
    <glyph glyph-name="K" unicode="K" 
d="M1493 0h-358q-172 0 -341 171l-239 239v-410h-512v1365h512v-447l314 447h624l-498 -713l205 -205q20 -20 83 -20h210v-427z" />
    <glyph glyph-name="L" unicode="L" horiz-adv-x="1365" 
d="M1323 0h-1280v1365h512v-938h768v-427z" />
    <glyph glyph-name="M" unicode="M" horiz-adv-x="1707" 
d="M1664 0h-512v427l-299 -427l-298 427v-427h-512v1365h512l298 -426l299 426h512v-1365z" />
    <glyph glyph-name="N" unicode="N" 
d="M1493 0h-512q-7 219 -107 386q-118 201 -319 211v-597h-512v1365h6q287 0 523 -99q267 -112 409 -327v426h512v-1365z" />
    <glyph glyph-name="O" unicode="O" 
d="M1493 683q0 -287 -222 -488q-213 -195 -503 -195t-503 195q-222 201 -222 488q0 285 222 488q214 194 503 194t503 -194q222 -203 222 -488zM1033 683q0 103 -81 180q-79 76 -184 76q-107 0 -186 -76t-79 -180t79 -180t186 -76q106 0 185 76q80 77 80 180z" />
    <glyph glyph-name="P" unicode="P" 
d="M1493 887q0 -187 -145 -332t-333 -145h-460v-410h-512v734h836q41 0 71 30q31 31 31 72t-31 72q-30 31 -71 31h-836v426h972q188 0 333 -145t145 -333z" />
    <glyph glyph-name="Q" unicode="Q" horiz-adv-x="1621" 
d="M1579 0h-811q-290 0 -503 195q-222 201 -222 488q0 285 222 488q214 194 503 194t503 -194q222 -203 222 -488q0 -132 -51 -256h137v-427zM1033 683q0 103 -81 180q-79 76 -184 76t-185 -76q-80 -77 -80 -180q0 -104 79 -180t186 -76q106 0 185 76q80 77 80 180z" />
    <glyph glyph-name="R" unicode="R" horiz-adv-x="1621" 
d="M1579 0h-444q-172 0 -341 171l-239 239v-410h-512v734h836q41 0 71 30q31 31 31 72t-31 72q-30 31 -71 31h-836v426h972q189 0 334 -137q144 -137 144 -323q0 -139 -82 -257q-83 -118 -211 -167q31 -54 89 -54h290v-427z" />
    <glyph glyph-name="S" unicode="S" horiz-adv-x="1451" 
d="M1408 939h-543q-34 0 -34 -40q0 -10 5 -13l248 -186q153 -116 153 -311q0 -162 -132 -276q-133 -113 -296 -113h-766v427h507q34 0 34 41q0 7 -5 12l-231 169q-135 99 -135 302q0 167 130 290q130 124 297 124h768v-426z" />
    <glyph glyph-name="T" unicode="T" 
d="M1493 939h-469v-939h-512v939h-469v426h1450v-426z" />
    <glyph glyph-name="U" unicode="U" 
d="M1493 683q0 -287 -222 -488q-213 -195 -503 -195t-503 195q-222 201 -222 488v682h460v-682q0 -104 79 -180t186 -76q105 0 184 76q81 76 81 180v682h460v-682z" />
    <glyph glyph-name="V" unicode="V" horiz-adv-x="1621" 
d="M1579 1365l-359 -1365h-819l-358 1365h529l239 -909l239 909h529z" />
    <glyph glyph-name="W" unicode="W" horiz-adv-x="2202" 
d="M2159 1365l-358 -1365h-581l-119 456l-120 -456h-580l-358 1365h529l119 -455l120 455h580l119 -455l120 455h529z" />
    <glyph glyph-name="X" unicode="X" horiz-adv-x="1792" 
d="M1749 0h-631l-222 282l-222 -282h-631l537 683l-537 682h631l222 -281l222 281h631l-537 -682z" />
    <glyph glyph-name="Y" unicode="Y" horiz-adv-x="1690" 
d="M1647 1365l-546 -938v-427h-512v427l-546 938h580l222 -401l222 401h580z" />
    <glyph glyph-name="Z" unicode="Z" 
d="M1493 0h-1450l621 939h-621v426h1450l-621 -938h621v-427z" />
    <glyph glyph-name="bracketleft" unicode="[" horiz-adv-x="597" 
d="M555 -169h-512v1705h512v-341h-171v-1024h171v-340z" />
    <glyph glyph-name="backslash" unicode="\" horiz-adv-x="905" 
d="M905 -60l-321 -116l-584 1603l321 116z" />
    <glyph glyph-name="bracketright" unicode="]" horiz-adv-x="597" 
d="M555 -169h-512v340h170v1024h-170v341h512v-1705z" />
    <glyph glyph-name="asciicircum" unicode="^" horiz-adv-x="973" 
d="M930 768h-205l-239 418l-239 -418h-204l341 597h205z" />
    <glyph glyph-name="underscore" unicode="_" horiz-adv-x="683" 
d="M683 0h-683v256h683v-256z" />
    <glyph glyph-name="grave" unicode="`" horiz-adv-x="853" 
d="M811 1451l-768 85l170 171l598 -222v-34z" />
    <glyph glyph-name="a" unicode="a" horiz-adv-x="1621" 
d="M1579 0h-529l-45 171h-389l-44 -171h-529l358 1365h819zM915 512l-104 398l-104 -398h208z" />
    <glyph glyph-name="b" unicode="b" 
d="M1493 398q0 -176 -155 -292q-142 -106 -323 -106h-972v1365h887q182 0 324 -107q154 -118 154 -294q0 -136 -84 -242q169 -114 169 -324zM964 922q0 41 -31 71q-30 31 -71 31h-341v-205h341q41 0 71 31q31 31 31 72zM981 444q0 41 -31 71q-30 31 -71 31h-358v-205h358
q41 0 71 31q31 31 31 72z" />
    <glyph glyph-name="c" unicode="c" horiz-adv-x="1365" 
d="M1323 0h-555q-290 0 -503 195q-222 201 -222 488q0 285 222 488q214 194 503 194h555v-426h-555q-105 0 -185 -76q-80 -77 -80 -180q0 -104 79 -180t186 -76h555v-427z" />
    <glyph glyph-name="d" unicode="d" 
d="M1493 683q0 -287 -222 -488q-213 -195 -503 -195h-725v1365h725q289 0 503 -194q222 -203 222 -488zM1033 683q0 103 -81 180q-79 76 -184 76h-247v-512h247q106 0 185 76q80 77 80 180z" />
    <glyph glyph-name="e" unicode="e" horiz-adv-x="1451" 
d="M1408 0h-1365v1365h1365v-426h-853v-77h512v-359h-512v-76h853v-427z" />
    <glyph glyph-name="f" unicode="f" horiz-adv-x="1451" 
d="M1408 939h-853v-77h512v-359h-512v-503h-512v1365h1365v-426z" />
    <glyph glyph-name="g" unicode="g" 
d="M1493 0h-725q-290 0 -503 195q-222 201 -222 488q0 285 222 488q214 194 503 194h725v-426h-725q-105 0 -185 -76q-80 -77 -80 -180q0 -104 79 -180t186 -76h213v256h512v-683z" />
    <glyph glyph-name="h" unicode="h" 
d="M1493 0h-512v503h-426v-503h-512v1365h512v-503h426v503h512v-1365z" />
    <glyph glyph-name="i" unicode="i" horiz-adv-x="597" 
d="M555 0h-512v1365h512v-1365z" />
    <glyph glyph-name="j" unicode="j" horiz-adv-x="896" 
d="M853 85q0 -276 -244 -370q-144 -55 -481 -55l-85 425q171 0 225 16q125 35 125 155v1109h460v-1280z" />
    <glyph glyph-name="k" unicode="k" 
d="M1493 0h-358q-172 0 -341 171l-239 239v-410h-512v1365h512v-447l314 447h624l-498 -713l205 -205q20 -20 83 -20h210v-427z" />
    <glyph glyph-name="l" unicode="l" horiz-adv-x="1365" 
d="M1323 0h-1280v1365h512v-938h768v-427z" />
    <glyph glyph-name="m" unicode="m" horiz-adv-x="1707" 
d="M1664 0h-512v427l-299 -427l-298 427v-427h-512v1365h512l298 -426l299 426h512v-1365z" />
    <glyph glyph-name="n" unicode="n" 
d="M1493 0h-512l-426 546v-546h-512v1365h512l426 -546v546h512v-1365z" />
    <glyph glyph-name="o" unicode="o" 
d="M1493 683q0 -287 -222 -488q-213 -195 -503 -195t-503 195q-222 201 -222 488q0 285 222 488q214 194 503 194t503 -194q222 -203 222 -488zM1033 683q0 103 -81 180q-79 76 -184 76q-107 0 -186 -76t-79 -180t79 -180t186 -76q106 0 185 76q80 77 80 180z" />
    <glyph glyph-name="p" unicode="p" 
d="M1493 887q0 -187 -145 -332t-333 -145h-460v-410h-512v1365h972q188 0 333 -145t145 -333zM981 887q0 41 -31 72q-30 31 -71 31h-324v-205h324q41 0 71 31q31 31 31 71z" />
    <glyph glyph-name="q" unicode="q" horiz-adv-x="1621" 
d="M1579 0h-811q-290 0 -503 195q-222 201 -222 488q0 285 222 488q214 194 503 194t503 -194q222 -203 222 -488q0 -132 -51 -256h137v-427zM1033 683q0 103 -81 180q-79 76 -184 76t-185 -76q-80 -77 -80 -180q0 -104 79 -180t186 -76q106 0 185 76q80 77 80 180z" />
    <glyph glyph-name="r" unicode="r" horiz-adv-x="1621" 
d="M1579 0h-444q-172 0 -341 171l-239 239v-410h-512v1365h972q189 0 334 -137q144 -137 144 -323q0 -139 -82 -257q-83 -118 -211 -167q31 -54 89 -54h290v-427zM981 887q0 41 -31 72q-30 31 -71 31h-324v-205h324q41 0 71 31q31 31 31 71z" />
    <glyph glyph-name="s" unicode="s" horiz-adv-x="1451" 
d="M1408 939h-543q-34 0 -34 -40q0 -10 5 -13l248 -186q153 -116 153 -311q0 -162 -132 -276q-133 -113 -296 -113h-766v427h507q34 0 34 41q0 7 -5 12l-231 169q-135 99 -135 302q0 167 130 290q130 124 297 124h768v-426z" />
    <glyph glyph-name="t" unicode="t" 
d="M1493 939h-469v-939h-512v939h-469v426h1450v-426z" />
    <glyph glyph-name="u" unicode="u" 
d="M1493 683q0 -287 -222 -488q-213 -195 -503 -195t-503 195q-222 201 -222 488v682h460v-682q0 -104 79 -180t186 -76q105 0 184 76q81 76 81 180v682h460v-682z" />
    <glyph glyph-name="v" unicode="v" horiz-adv-x="1621" 
d="M1579 1365l-359 -1365h-819l-358 1365h529l239 -909l239 909h529z" />
    <glyph glyph-name="w" unicode="w" horiz-adv-x="2202" 
d="M2159 1365l-358 -1365h-581l-119 456l-120 -456h-580l-358 1365h529l119 -455l120 455h580l119 -455l120 455h529z" />
    <glyph glyph-name="x" unicode="x" horiz-adv-x="1792" 
d="M1749 0h-631l-222 282l-222 -282h-631l537 683l-537 682h631l222 -281l222 281h631l-537 -682z" />
    <glyph glyph-name="y" unicode="y" horiz-adv-x="1690" 
d="M1647 1365l-546 -938v-427h-512v427l-546 938h580l222 -401l222 401h580z" />
    <glyph glyph-name="z" unicode="z" 
d="M1493 0h-1450l621 939h-621v426h1450l-621 -938h621v-427z" />
    <glyph glyph-name="braceleft" unicode="{" horiz-adv-x="768" 
d="M725 -169h-170q-137 0 -240 102q-102 100 -102 238v256q0 67 -50 117t-120 53v154q71 3 120 52q50 50 50 119v273q0 136 102 238q103 103 240 103h170v-341h-170v-342q0 -69 -51 -118q-49 -49 -120 -52q70 -5 120 -54q51 -50 51 -117v-341h170v-340z" />
    <glyph glyph-name="bar" unicode="|" horiz-adv-x="473" 
d="M384 -169h-341v1705h341v-1705z" />
    <glyph glyph-name="braceright" unicode="}" horiz-adv-x="768" 
d="M725 597q-70 -3 -120 -53t-50 -117v-256q0 -138 -103 -238q-102 -102 -239 -102h-170v340h170v341q0 67 50 117q51 50 121 54q-71 3 -121 52q-50 50 -50 118v342h-170v341h170q137 0 239 -103q103 -102 103 -238v-273q0 -69 50 -119q49 -49 120 -52v-154z" />
    <glyph glyph-name="asciitilde" unicode="~" horiz-adv-x="768" 
d="M725 1521q-94 -70 -175 -70q-57 0 -168 41t-167 41q-81 0 -172 -82v174q76 66 172 66q59 0 170 -41t170 -41q79 0 170 82v-170z" />
    <glyph glyph-name="quotesinglbase" horiz-adv-x="427" 
d="M384 171q0 -60 -25 -128.5t-76 -131.5q-63 -77 -121 -80l51 169q-70 0 -120 50q-50 52 -50 121q0 68 51 119t119 51q69 0 120 -51t51 -119z" />
    <glyph glyph-name="quotesinglbase" unicode="&#x201a;" horiz-adv-x="427" 
d="M384 171q0 -60 -25 -128.5t-76 -131.5q-63 -77 -121 -80l51 169q-70 0 -120 50q-50 52 -50 121q0 68 51 119t119 51q69 0 120 -51t51 -119z" />
    <glyph glyph-name="quotedblbase" horiz-adv-x="853" 
d="M811 171q0 -60 -26 -128.5t-75 -131.5q-63 -77 -121 -80l51 169q-69 0 -121 50q-50 52 -50 121q0 68 51 119q52 51 120 51t119 -51q52 -51 52 -119zM384 171q0 -60 -25 -128.5t-76 -131.5q-63 -77 -121 -80l51 169q-70 0 -120 50q-50 52 -50 121q0 68 51 119t119 51
q69 0 120 -51t51 -119z" />
    <glyph glyph-name="quotedblbase" unicode="&#x201e;" horiz-adv-x="853" 
d="M811 171q0 -60 -26 -128.5t-75 -131.5q-63 -77 -121 -80l51 169q-69 0 -121 50q-50 52 -50 121q0 68 51 119q52 51 120 51t119 -51q52 -51 52 -119zM384 171q0 -60 -25 -128.5t-76 -131.5q-63 -77 -121 -80l51 169q-70 0 -120 50q-50 52 -50 121q0 68 51 119t119 51
q69 0 120 -51t51 -119z" />
    <glyph glyph-name="ellipsis" unicode="&#x85;" horiz-adv-x="1280" 
d="M1237 171q0 -69 -50 -121q-50 -50 -120 -50q-69 0 -121 50q-50 52 -50 121q0 70 50 120q52 50 121 50q70 0 120 -50t50 -120zM811 171q0 -70 -51 -121q-50 -50 -120 -50q-69 0 -121 50q-50 52 -50 121q0 70 50 120q52 50 121 50q70 0 120 -50q51 -50 51 -120zM384 171
q0 -70 -51 -121q-50 -50 -120 -50t-120 50q-50 52 -50 121q0 70 50 120t120 50t120 -50q51 -50 51 -120z" />
    <glyph glyph-name="ellipsis" unicode="&#x2026;" horiz-adv-x="1280" 
d="M1237 171q0 -69 -50 -121q-50 -50 -120 -50q-69 0 -121 50q-50 52 -50 121q0 70 50 120q52 50 121 50q70 0 120 -50t50 -120zM811 171q0 -70 -51 -121q-50 -50 -120 -50q-69 0 -121 50q-50 52 -50 121q0 70 50 120q52 50 121 50q70 0 120 -50q51 -50 51 -120zM384 171
q0 -70 -51 -121q-50 -50 -120 -50t-120 50q-50 52 -50 121q0 70 50 120t120 50t120 -50q51 -50 51 -120z" />
    <glyph glyph-name="perthousand" horiz-adv-x="2444" 
d="M2401 341q0 -136 -103 -239q-102 -102 -238 -102q-137 0 -239 102q-102 103 -102 239q0 137 102 239q102 103 239 103q136 0 238 -103q103 -102 103 -239zM1684 341q0 -136 -102 -239q-102 -102 -239 -102q-136 0 -239 102q-102 103 -102 239q0 137 102 239
q103 103 239 103q137 0 239 -103q102 -102 102 -239zM1258 1266l-468 -1281l-321 114l468 1283zM725 1024q0 -137 -102 -239t-239 -102t-239 102t-102 239t102 239t239 102t239 -102t102 -239zM2188 341q0 52 -39 90q-38 38 -89 38q-50 0 -90 -38q-38 -38 -38 -90
q0 -50 38 -90q40 -38 90 -38q51 0 89 38q39 39 39 90zM1471 341q0 52 -39 90q-38 38 -89 38q-50 0 -90 -38q-38 -38 -38 -90q0 -50 38 -90q40 -38 90 -38q51 0 89 38q39 39 39 90zM512 1024q0 51 -39 89q-38 39 -89 39t-90 -39q-38 -38 -38 -89q0 -50 38 -90q40 -38 90 -38
q51 0 89 38q39 39 39 90z" />
    <glyph glyph-name="perthousand" unicode="&#x2030;" horiz-adv-x="2444" 
d="M2401 341q0 -136 -103 -239q-102 -102 -238 -102q-137 0 -239 102q-102 103 -102 239q0 137 102 239q102 103 239 103q136 0 238 -103q103 -102 103 -239zM1684 341q0 -136 -102 -239q-102 -102 -239 -102q-136 0 -239 102q-102 103 -102 239q0 137 102 239
q103 103 239 103q137 0 239 -103q102 -102 102 -239zM1258 1266l-468 -1281l-321 114l468 1283zM725 1024q0 -137 -102 -239t-239 -102t-239 102t-102 239t102 239t239 102t239 -102t102 -239zM2188 341q0 52 -39 90q-38 38 -89 38q-50 0 -90 -38q-38 -38 -38 -90
q0 -50 38 -90q40 -38 90 -38q51 0 89 38q39 39 39 90zM1471 341q0 52 -39 90q-38 38 -89 38q-50 0 -90 -38q-38 -38 -38 -90q0 -50 38 -90q40 -38 90 -38q51 0 89 38q39 39 39 90zM512 1024q0 51 -39 89q-38 39 -89 39t-90 -39q-38 -38 -38 -89q0 -50 38 -90q40 -38 90 -38
q51 0 89 38q39 39 39 90z" />
    <glyph glyph-name="OE" horiz-adv-x="2449" 
d="M2406 0h-1365v51q-134 -51 -273 -51q-290 0 -503 195q-222 201 -222 488q0 285 222 488q214 194 503 194q139 0 273 -51v51h1365v-426h-853v-77h512v-359h-512v-76h853v-427zM1033 683q0 103 -81 180q-79 76 -184 76t-185 -76q-80 -77 -80 -180q0 -104 79 -180t186 -76
q106 0 185 76q80 77 80 180z" />
    <glyph glyph-name="OE" unicode="&#x152;" horiz-adv-x="2449" 
d="M2406 0h-1365v51q-134 -51 -273 -51q-290 0 -503 195q-222 201 -222 488q0 285 222 488q214 194 503 194q139 0 273 -51v51h1365v-426h-853v-77h512v-359h-512v-76h853v-427zM1033 683q0 103 -81 180q-79 76 -184 76t-185 -76q-80 -77 -80 -180q0 -104 79 -180t186 -76
q106 0 185 76q80 77 80 180z" />
    <glyph glyph-name="quoteleft" horiz-adv-x="427" 
d="M384 1024q0 -68 -51 -120q-51 -51 -120 -51q-68 0 -119 51q-51 52 -51 120q0 60 25.5 129t74.5 132q65 77 122 80l-52 -170q70 0 120 -51q51 -50 51 -120z" />
    <glyph glyph-name="quoteleft" unicode="&#x2018;" horiz-adv-x="427" 
d="M384 1024q0 -68 -51 -120q-51 -51 -120 -51q-68 0 -119 51q-51 52 -51 120q0 60 25.5 129t74.5 132q65 77 122 80l-52 -170q70 0 120 -51q51 -50 51 -120z" />
    <glyph glyph-name="quoteright" horiz-adv-x="427" 
d="M384 1195q0 -60 -25 -129t-76 -132q-63 -77 -121 -81l51 171q-70 0 -120 50q-50 52 -50 121q0 68 51 119t119 51q69 0 120 -51t51 -119z" />
    <glyph glyph-name="quoteright" unicode="&#x2019;" horiz-adv-x="427" 
d="M384 1195q0 -60 -25 -129t-76 -132q-63 -77 -121 -81l51 171q-70 0 -120 50q-50 52 -50 121q0 68 51 119t119 51q69 0 120 -51t51 -119z" />
    <glyph glyph-name="quotedblleft" horiz-adv-x="853" 
d="M811 1024q0 -68 -52 -120q-51 -51 -119 -51t-120 51q-51 52 -51 120q0 60 26 129t75 132q63 77 121 80l-51 -170q70 0 120 -51q51 -50 51 -120zM384 1024q0 -68 -51 -120q-51 -51 -120 -51q-68 0 -119 51q-51 52 -51 120q0 60 25.5 129t74.5 132q65 77 122 80l-52 -170
q70 0 120 -51q51 -50 51 -120z" />
    <glyph glyph-name="quotedblleft" unicode="&#x201c;" horiz-adv-x="853" 
d="M811 1024q0 -68 -52 -120q-51 -51 -119 -51t-120 51q-51 52 -51 120q0 60 26 129t75 132q63 77 121 80l-51 -170q70 0 120 -51q51 -50 51 -120zM384 1024q0 -68 -51 -120q-51 -51 -120 -51q-68 0 -119 51q-51 52 -51 120q0 60 25.5 129t74.5 132q65 77 122 80l-52 -170
q70 0 120 -51q51 -50 51 -120z" />
    <glyph glyph-name="quotedblright" horiz-adv-x="853" 
d="M811 1195q0 -60 -26 -129t-75 -132q-63 -77 -121 -81l51 171q-69 0 -121 50q-50 52 -50 121q0 68 51 119q52 51 120 51t119 -51q52 -51 52 -119zM384 1195q0 -60 -25 -129t-76 -132q-63 -77 -121 -81l51 171q-70 0 -120 50q-50 52 -50 121q0 68 51 119t119 51
q69 0 120 -51t51 -119z" />
    <glyph glyph-name="quotedblright" unicode="&#x201d;" horiz-adv-x="853" 
d="M811 1195q0 -60 -26 -129t-75 -132q-63 -77 -121 -81l51 171q-69 0 -121 50q-50 52 -50 121q0 68 51 119q52 51 120 51t119 -51q52 -51 52 -119zM384 1195q0 -60 -25 -129t-76 -132q-63 -77 -121 -81l51 171q-70 0 -120 50q-50 52 -50 121q0 68 51 119t119 51
q69 0 120 -51t51 -119z" />
    <glyph glyph-name="bullet" horiz-adv-x="597" 
d="M555 683q0 -104 -76 -180t-180 -76t-180 76t-76 180t76 180t180 76t180 -76t76 -180z" />
    <glyph glyph-name="bullet" unicode="&#x2022;" horiz-adv-x="597" 
d="M555 683q0 -104 -76 -180t-180 -76t-180 76t-76 180t76 180t180 76t180 -76t76 -180z" />
    <glyph glyph-name="tilde" horiz-adv-x="768" 
d="M725 1521q-94 -70 -175 -70q-57 0 -168 41t-167 41q-81 0 -172 -82v174q76 66 172 66q59 0 170 -41t170 -41q79 0 170 82v-170z" />
    <glyph glyph-name="tilde" unicode="&#x2dc;" horiz-adv-x="768" 
d="M725 1521q-94 -70 -175 -70q-57 0 -168 41t-167 41q-81 0 -172 -82v174q76 66 172 66q59 0 170 -41t170 -41q79 0 170 82v-170z" />
    <glyph glyph-name="trademark" horiz-adv-x="1237" 
d="M1195 683h-191v160l-113 -160l-113 160v-160h-191v351h-176v-351h-193v351h-175v161h735l113 -161l113 161h191v-512z" />
    <glyph glyph-name="trademark" unicode="&#x2122;" horiz-adv-x="1237" 
d="M1195 683h-191v160l-113 -160l-113 160v-160h-191v351h-176v-351h-193v351h-175v161h735l113 -161l113 161h191v-512z" />
    <glyph glyph-name="oe" horiz-adv-x="2449" 
d="M2406 0h-1365v51q-134 -51 -273 -51q-290 0 -503 195q-222 201 -222 488q0 285 222 488q214 194 503 194q139 0 273 -51v51h1365v-426h-853v-77h512v-359h-512v-76h853v-427zM1033 683q0 103 -81 180q-79 76 -184 76t-185 -76q-80 -77 -80 -180q0 -104 79 -180t186 -76
q106 0 185 76q80 77 80 180z" />
    <glyph glyph-name="oe" unicode="&#x153;" horiz-adv-x="2449" 
d="M2406 0h-1365v51q-134 -51 -273 -51q-290 0 -503 195q-222 201 -222 488q0 285 222 488q214 194 503 194q139 0 273 -51v51h1365v-426h-853v-77h512v-359h-512v-76h853v-427zM1033 683q0 103 -81 180q-79 76 -184 76t-185 -76q-80 -77 -80 -180q0 -104 79 -180t186 -76
q106 0 185 76q80 77 80 180z" />
    <glyph glyph-name="Ydieresis" horiz-adv-x="1690" 
d="M1186 1579q0 -53 -38 -91q-37 -37 -90 -37q-50 0 -90 38q-38 38 -38 90q0 51 38 89q39 39 90 39q52 0 90 -38t38 -90zM759 1579q0 -53 -38 -91q-37 -37 -90 -37q-50 0 -90 38q-38 38 -38 90q0 51 38 89q39 39 90 39q52 0 90 -38t38 -90zM1647 1365l-546 -938v-427h-512
v427l-546 938h580l222 -401l222 401h580z" />
    <glyph glyph-name="Ydieresis" unicode="&#x178;" horiz-adv-x="1690" 
d="M1186 1579q0 -53 -38 -91q-37 -37 -90 -37q-50 0 -90 38q-38 38 -38 90q0 51 38 89q39 39 90 39q52 0 90 -38t38 -90zM759 1579q0 -53 -38 -91q-37 -37 -90 -37q-50 0 -90 38q-38 38 -38 90q0 51 38 89q39 39 90 39q52 0 90 -38t38 -90zM1647 1365l-546 -938v-427h-512
v427l-546 938h580l222 -401l222 401h580z" />
    <glyph glyph-name="nonbreakingspace" unicode="&#xa0;" horiz-adv-x="768" 
 />
    <glyph glyph-name="exclamdown" unicode="&#xa1;" horiz-adv-x="427" 
d="M384 1195q0 -70 -51 -121q-50 -50 -120 -50t-120 50q-50 52 -50 121q0 70 50 120t120 50t120 -50q51 -50 51 -120zM384 0h-341l34 939h273z" />
    <glyph glyph-name="cent" unicode="&#xa2;" horiz-adv-x="1365" 
d="M1323 0h-401v-169h-342v193q-231 60 -382 239q-155 187 -155 420q0 232 155 420q150 177 382 238v195h342v-171h401v-426h-555q-105 0 -185 -76q-80 -77 -80 -180q0 -104 79 -180t186 -76h555v-427z" />
    <glyph glyph-name="yen" unicode="&#xa5;" horiz-adv-x="1690" 
d="M1647 1365l-299 -512h214v-256h-362l-50 -85h412v-256h-461v-256h-512v256h-461v256h411l-49 85h-362v256h213l-298 512h580l222 -401l222 401h580z" />
    <glyph glyph-name="dieresis" unicode="&#xa8;" horiz-adv-x="768" 
d="M725 1579q0 -53 -38 -91q-37 -37 -90 -37q-50 0 -90 38q-38 38 -38 90q0 53 37 90q38 38 91 38q52 0 90 -39q38 -38 38 -89zM299 1579q0 -53 -38 -91q-37 -37 -90 -37q-52 0 -90 38t-38 90q0 53 37 90q38 38 91 38q51 0 89 -39q39 -38 39 -89z" />
    <glyph glyph-name="copyright" unicode="&#xa9;" horiz-adv-x="1246" 
d="M1203 683q0 -238 -172 -410q-171 -171 -408 -171t-409 171q-171 172 -171 410q0 237 171 408q172 172 409 172q234 0 407 -173t173 -407zM1033 683q0 165 -123 287q-122 122 -287 122q-166 0 -288 -122t-122 -287q0 -166 122 -288t288 -122q165 0 287 122
q123 121 123 288zM795 427h-193q-108 0 -196 71q-92 77 -92 185q0 107 92 184q85 72 196 72h193v-161h-193q-42 0 -78 -27t-36 -68t36 -69q36 -27 78 -27h193v-160z" />
    <glyph glyph-name="registered" unicode="&#xae;" horiz-adv-x="1246" 
d="M1203 683q0 -238 -172 -410q-171 -171 -408 -171t-409 171q-171 172 -171 410q0 237 171 408q172 172 409 172q234 0 407 -173t173 -407zM1033 683q0 165 -123 287q-122 122 -287 122q-166 0 -288 -122t-122 -287q0 -166 122 -288t288 -122q165 0 287 122
q123 121 123 288zM911 427h-167q-59 0 -123 53q-15 14 -94 100v-153h-192v512h365q71 0 124 -52q55 -51 55 -121q0 -115 -111 -158q12 -21 34 -21h109v-160zM686 759q0 40 -37 40h-122v-79h122q37 0 37 39z" />
    <glyph glyph-name="degree" unicode="&#xb0;" horiz-adv-x="469" 
d="M427 1172q0 -78 -58 -135q-58 -56 -135 -56q-79 0 -135 56q-56 58 -56 135q0 78 56 136q55 57 135 57q78 0 135 -57q58 -57 58 -136zM324 1172q0 18 -7.5 34.5t-19.5 29t-28.5 20t-34.5 7.5t-34.5 -7.5t-29 -20t-20 -29t-7.5 -34.5t7.5 -34.5t20 -29t29 -19.5t34.5 -7
q36 0 63 27q27 28 27 63z" />
    <glyph glyph-name="plusminus" unicode="&#xb1;" horiz-adv-x="768" 
d="M725 555h-213v-214h-256v214h-213v256h213v213h256v-213h213v-256zM725 0h-682v256h682v-256z" />
    <glyph glyph-name="acute" unicode="&#xb4;" horiz-adv-x="853" 
d="M811 1536l-768 -85v34l597 222z" />
    <glyph glyph-name="paragraph" unicode="&#xb6;" 
d="M1493 990h-119v-990h-341v990h-171v-990h-341v410q-190 1 -334 144q-144 144 -144 333q0 188 145 333t333 145h972v-375z" />
    <glyph glyph-name="questiondown" unicode="&#xbf;" horiz-adv-x="1280" 
d="M1237 1195q0 -69 -50 -121q-50 -50 -120 -50q-69 0 -121 50q-50 52 -50 121q0 70 50 120q52 50 121 50q70 0 120 -50t50 -120zM1237 0h-768q-171 0 -298 130q-128 131 -128 302q0 168 128 299q129 131 298 131h359q71 0 68 111h341v-39q0 -170 -129 -300
q-128 -131 -297 -131h-256q-52 0 -52 -51q0 -59 52 -59h682v-393z" />
    <glyph glyph-name="Agrave" unicode="&#xc0;" horiz-adv-x="1621" 
d="M1024 1451l-768 85l171 171l597 -222v-34zM1579 0h-529l-45 171h-389l-44 -171h-529l358 1365h819zM915 512l-104 398l-104 -398h208z" />
    <glyph glyph-name="Aacute" unicode="&#xc1;" horiz-adv-x="1621" 
d="M1365 1536l-768 -85v34l598 222zM1579 0h-529l-45 171h-389l-44 -171h-529l358 1365h819zM915 512l-104 398l-104 -398h208z" />
    <glyph glyph-name="Acircumflex" unicode="&#xc2;" horiz-adv-x="1621" 
d="M1307 1451h-276l-220 165l-220 -165h-277l341 256h311zM1579 0h-529l-45 171h-389l-44 -171h-529l358 1365h819zM915 512l-104 398l-104 -398h208z" />
    <glyph glyph-name="Atilde" unicode="&#xc3;" horiz-adv-x="1621" 
d="M1152 1521q-95 -70 -176 -70q-56 0 -167 41t-167 41q-82 0 -173 -82v174q76 66 173 66q58 0 169 -41q112 -41 170 -41q80 0 171 82v-170zM1579 0h-529l-45 171h-389l-44 -171h-529l358 1365h819zM915 512l-104 398l-104 -398h208z" />
    <glyph glyph-name="Adieresis" unicode="&#xc4;" horiz-adv-x="1621" 
d="M1152 1579q0 -53 -38 -91q-37 -37 -90 -37q-50 0 -90 38q-38 38 -38 90q0 51 38 89q39 39 90 39q52 0 90 -38t38 -90zM725 1579q0 -53 -38 -91q-37 -37 -90 -37q-50 0 -90 38q-38 38 -38 90q0 51 38 89q39 39 90 39q52 0 90 -38t38 -90zM1579 0h-529l-45 171h-389
l-44 -171h-529l358 1365h819zM915 512l-104 398l-104 -398h208z" />
    <glyph glyph-name="Aring" unicode="&#xc5;" horiz-adv-x="1621" 
d="M939 1579q0 -53 -39 -90q-38 -38 -89 -38q-52 0 -90 38t-38 90q0 51 38 89q37 39 90 39q51 0 89 -39q39 -38 39 -89zM1579 0h-529l-45 171h-389l-44 -171h-529l358 1365h819zM870 1579q0 24 -17.5 41.5t-41.5 17.5q-60 0 -60 -59q0 -60 60 -60q24 0 41.5 18t17.5 42z
M915 512l-104 398l-104 -398h208z" />
    <glyph glyph-name="AE" unicode="&#xc6;" horiz-adv-x="2458" 
d="M2415 0h-1365v171h-390l-88 -171h-529l710 1365h1662v-426h-853v-77h512v-359h-512v-76h853v-427zM1050 478v432l-229 -432h229z" />
    <glyph glyph-name="Egrave" unicode="&#xc8;" horiz-adv-x="1451" 
d="M939 1451l-768 85l170 171l598 -222v-34zM1408 0h-1365v1365h1365v-426h-853v-77h512v-359h-512v-76h853v-427z" />
    <glyph glyph-name="Eacute" unicode="&#xc9;" horiz-adv-x="1451" 
d="M1280 1536l-768 -85v34l597 222zM1408 0h-1365v1365h1365v-426h-853v-77h512v-359h-512v-76h853v-427z" />
    <glyph glyph-name="Ecircumflex" unicode="&#xca;" horiz-adv-x="1451" 
d="M1222 1451h-277l-220 165l-220 -165h-276l341 256h311zM1408 0h-1365v1365h1365v-426h-853v-77h512v-359h-512v-76h853v-427z" />
    <glyph glyph-name="Edieresis" unicode="&#xcb;" horiz-adv-x="1451" 
d="M1067 1579q0 -53 -39 -90q-38 -38 -89 -38q-52 0 -90 38t-38 90q0 51 38 89q37 39 90 39q52 0 90 -38t38 -90zM640 1579q0 -53 -39 -90q-38 -38 -89 -38q-50 0 -90 38q-38 38 -38 90q0 51 38 89q39 39 90 39q52 0 90 -38t38 -90zM1408 0h-1365v1365h1365v-426h-853v-77
h512v-359h-512v-76h853v-427z" />
    <glyph glyph-name="Igrave" unicode="&#xcc;" horiz-adv-x="597" 
d="M512 1451l-766 85l170 171l596 -222v-34zM555 0h-512v1365h512v-1365z" />
    <glyph glyph-name="Iacute" unicode="&#xcd;" horiz-adv-x="597" 
d="M853 1536l-768 -85v34l598 222zM555 0h-512v1365h512v-1365z" />
    <glyph glyph-name="Icircumflex" unicode="&#xce;" horiz-adv-x="597" 
d="M795 1451h-276l-220 165l-220 -165h-275l339 256h311zM555 0h-512v1365h512v-1365z" />
    <glyph glyph-name="Idieresis" unicode="&#xcf;" horiz-adv-x="597" 
d="M640 1579q0 -53 -39 -90q-38 -38 -89 -38q-50 0 -90 38q-38 38 -38 90q0 51 38 89q39 39 90 39q52 0 90 -38t38 -90zM213 1579q0 -52 -38 -90t-90 -38q-50 0 -88 38t-38 90q0 51 38 89q37 39 88 39q52 0 90 -38t38 -90zM555 0h-512v1365h512v-1365z" />
    <glyph glyph-name="Ntilde" unicode="&#xd1;" 
d="M1109 1521q-94 -70 -175 -70q-57 0 -168 41t-167 41q-81 0 -172 -82v174q76 66 172 66q59 0 170 -41t170 -41q79 0 170 82v-170zM1493 0h-512q-7 219 -107 386q-118 201 -319 211v-597h-512v1365h6q287 0 523 -99q267 -112 409 -327v426h512v-1365z" />
    <glyph glyph-name="Ograve" unicode="&#xd2;" 
d="M981 1451l-768 85l171 171l597 -222v-34zM1493 683q0 -287 -222 -488q-213 -195 -503 -195t-503 195q-222 201 -222 488q0 285 222 488q214 194 503 194t503 -194q222 -203 222 -488zM1033 683q0 103 -81 180q-79 76 -184 76q-107 0 -186 -76t-79 -180t79 -180t186 -76
q106 0 185 76q80 77 80 180z" />
    <glyph glyph-name="Oacute" unicode="&#xd3;" 
d="M1323 1536l-768 -85v34l597 222zM1493 683q0 -287 -222 -488q-213 -195 -503 -195t-503 195q-222 201 -222 488q0 285 222 488q214 194 503 194t503 -194q222 -203 222 -488zM1033 683q0 103 -81 180q-79 76 -184 76q-107 0 -186 -76t-79 -180t79 -180t186 -76
q106 0 185 76q80 77 80 180z" />
    <glyph glyph-name="Ocircumflex" unicode="&#xd4;" 
d="M1265 1451h-277l-220 165l-220 -165h-277l342 256h310zM1493 683q0 -287 -222 -488q-213 -195 -503 -195t-503 195q-222 201 -222 488q0 285 222 488q214 194 503 194t503 -194q222 -203 222 -488zM1033 683q0 103 -81 180q-79 76 -184 76t-185 -76q-80 -77 -80 -180
q0 -104 79 -180t186 -76q106 0 185 76q80 77 80 180z" />
    <glyph glyph-name="Otilde" unicode="&#xd5;" 
d="M1109 1521q-94 -70 -175 -70q-57 0 -168 41t-167 41q-81 0 -172 -82v174q76 66 172 66q59 0 170 -41t170 -41q79 0 170 82v-170zM1493 683q0 -287 -222 -488q-213 -195 -503 -195t-503 195q-222 201 -222 488q0 285 222 488q214 194 503 194t503 -194q222 -203 222 -488z
M1033 683q0 103 -81 180q-79 76 -184 76q-107 0 -186 -76t-79 -180t79 -180t186 -76q106 0 185 76q80 77 80 180z" />
    <glyph glyph-name="Odieresis" unicode="&#xd6;" 
d="M1109 1579q0 -53 -38 -91q-37 -37 -90 -37q-50 0 -90 38q-38 38 -38 90q0 51 38 89q39 39 90 39q52 0 90 -38t38 -90zM683 1579q0 -53 -38 -91q-37 -37 -90 -37q-52 0 -90 38t-38 90q0 51 38 89q37 39 90 39q52 0 90 -38t38 -90zM1493 683q0 -287 -222 -488
q-213 -195 -503 -195t-503 195q-222 201 -222 488q0 285 222 488q214 194 503 194t503 -194q222 -203 222 -488zM1033 683q0 103 -81 180q-79 76 -184 76q-107 0 -186 -76t-79 -180t79 -180t186 -76q106 0 185 76q80 77 80 180z" />
    <glyph glyph-name="Oslash" unicode="&#xd8;" 
d="M1582 1316l-230 -231q141 -179 141 -402q0 -287 -222 -488q-213 -195 -503 -195q-208 0 -391 111l-242 -241l-179 179l228 231q-141 178 -141 403q0 285 222 488q214 194 503 194q208 0 391 -111l242 243zM1033 683q0 36 -12 71l-320 -319q35 -8 67 -8q106 0 185 76
q80 77 80 180zM835 930q-33 9 -67 9q-105 0 -185 -76q-80 -77 -80 -180q0 -35 12 -72z" />
    <glyph glyph-name="Ugrave" unicode="&#xd9;" 
d="M981 1451l-768 85l171 171l597 -222v-34zM1493 683q0 -287 -222 -488q-213 -195 -503 -195t-503 195q-222 201 -222 488v682h460v-682q0 -104 79 -180t186 -76q105 0 184 76q81 76 81 180v682h460v-682z" />
    <glyph glyph-name="Uacute" unicode="&#xda;" 
d="M1323 1536l-768 -85v34l597 222zM1493 683q0 -287 -222 -488q-213 -195 -503 -195t-503 195q-222 201 -222 488v682h460v-682q0 -104 79 -180t186 -76q105 0 184 76q81 76 81 180v682h460v-682z" />
    <glyph glyph-name="Ucircumflex" unicode="&#xdb;" 
d="M1265 1451h-277l-220 165l-220 -165h-277l342 256h310zM1493 683q0 -287 -222 -488q-213 -195 -503 -195t-503 195q-222 201 -222 488v682h460v-682q0 -104 79 -180t186 -76q105 0 184 76q81 76 81 180v682h460v-682z" />
    <glyph glyph-name="Udieresis" unicode="&#xdc;" 
d="M1109 1579q0 -53 -38 -91q-37 -37 -90 -37q-50 0 -90 38q-38 38 -38 90q0 51 38 89q39 39 90 39q52 0 90 -39q38 -38 38 -89zM683 1579q0 -53 -38 -91q-37 -37 -90 -37q-52 0 -90 38t-38 90q0 51 38 89q37 39 90 39q51 0 89 -39q39 -38 39 -89zM1493 683
q0 -287 -222 -488q-213 -195 -503 -195t-503 195q-222 201 -222 488v682h460v-682q0 -104 79 -180t186 -76q105 0 184 76q81 76 81 180v682h460v-682z" />
    <glyph glyph-name="agrave" unicode="&#xe0;" horiz-adv-x="1621" 
d="M1024 1451l-768 85l171 171l597 -222v-34zM1579 0h-529l-45 171h-389l-44 -171h-529l358 1365h819zM915 512l-104 398l-104 -398h208z" />
    <glyph glyph-name="aacute" unicode="&#xe1;" horiz-adv-x="1621" 
d="M1365 1536l-768 -85v34l598 222zM1579 0h-529l-45 171h-389l-44 -171h-529l358 1365h819zM915 512l-104 398l-104 -398h208z" />
    <glyph glyph-name="acircumflex" unicode="&#xe2;" horiz-adv-x="1621" 
d="M1307 1451h-276l-220 165l-220 -165h-277l341 256h311zM1579 0h-529l-45 171h-389l-44 -171h-529l358 1365h819zM915 512l-104 398l-104 -398h208z" />
    <glyph glyph-name="atilde" unicode="&#xe3;" horiz-adv-x="1621" 
d="M1152 1521q-95 -70 -176 -70q-56 0 -167 41t-167 41q-82 0 -173 -82v174q76 66 173 66q58 0 169 -41q112 -41 170 -41q80 0 171 82v-170zM1579 0h-529l-45 171h-389l-44 -171h-529l358 1365h819zM915 512l-104 398l-104 -398h208z" />
    <glyph glyph-name="adieresis" unicode="&#xe4;" horiz-adv-x="1621" 
d="M1152 1579q0 -53 -39 -90q-38 -38 -89 -38q-50 0 -90 38q-38 38 -38 90q0 53 37 90q38 38 91 38q52 0 90 -38t38 -90zM725 1579q0 -52 -38 -90t-90 -38q-50 0 -90 38q-38 38 -38 90q0 53 37 90q38 38 91 38q52 0 90 -38t38 -90zM1579 0h-529l-45 171h-389l-44 -171h-529
l358 1365h819zM915 512l-104 398l-104 -398h208z" />
    <glyph glyph-name="aring" unicode="&#xe5;" horiz-adv-x="1621" 
d="M939 1579q0 -53 -39 -90q-38 -38 -89 -38q-52 0 -90 38t-38 90q0 51 38 89q37 39 90 39q51 0 89 -39q39 -38 39 -89zM1579 0h-529l-45 171h-389l-44 -171h-529l358 1365h819zM870 1579q0 24 -17.5 41.5t-41.5 17.5q-60 0 -60 -59q0 -60 60 -60q24 0 41.5 18t17.5 42z
M915 512l-104 398l-104 -398h208z" />
    <glyph glyph-name="ae" unicode="&#xe6;" horiz-adv-x="2458" 
d="M2415 0h-1365v171h-390l-88 -171h-529l710 1365h1662v-426h-853v-77h512v-359h-512v-76h853v-427zM1050 478v432l-229 -432h229z" />
    <glyph glyph-name="egrave" unicode="&#xe8;" horiz-adv-x="1451" 
d="M939 1451l-768 85l170 171l598 -222v-34zM1408 0h-1365v1365h1365v-426h-853v-77h512v-359h-512v-76h853v-427z" />
    <glyph glyph-name="eacute" unicode="&#xe9;" horiz-adv-x="1451" 
d="M1280 1536l-768 -85v34l597 222zM1408 0h-1365v1365h1365v-426h-853v-77h512v-359h-512v-76h853v-427z" />
    <glyph glyph-name="ecircumflex" unicode="&#xea;" horiz-adv-x="1451" 
d="M1222 1451h-277l-220 165l-220 -165h-276l341 256h311zM1408 0h-1365v1365h1365v-426h-853v-77h512v-359h-512v-76h853v-427z" />
    <glyph glyph-name="edieresis" unicode="&#xeb;" horiz-adv-x="1451" 
d="M1067 1579q0 -53 -39 -90q-38 -38 -89 -38q-52 0 -90 38t-38 90q0 51 38 89q37 39 90 39q51 0 89 -39q39 -38 39 -89zM640 1579q0 -53 -39 -90q-38 -38 -89 -38q-50 0 -90 38q-38 38 -38 90q0 51 38 89q39 39 90 39t89 -39q39 -38 39 -89zM1408 0h-1365v1365h1365v-426
h-853v-77h512v-359h-512v-76h853v-427z" />
    <glyph glyph-name="igrave" unicode="&#xec;" horiz-adv-x="597" 
d="M512 1451l-766 85l170 171l596 -222v-34zM555 0h-512v1365h512v-1365z" />
    <glyph glyph-name="iacute" unicode="&#xed;" horiz-adv-x="597" 
d="M853 1536l-768 -85v34l598 222zM555 0h-512v1365h512v-1365z" />
    <glyph glyph-name="icircumflex" unicode="&#xee;" horiz-adv-x="597" 
d="M795 1451h-276l-220 165l-220 -165h-275l339 256h311zM555 0h-512v1365h512v-1365z" />
    <glyph glyph-name="idieresis" unicode="&#xef;" horiz-adv-x="597" 
d="M640 1579q0 -53 -39 -90q-38 -38 -89 -38q-50 0 -90 38q-38 38 -38 90q0 53 37 90q38 38 91 38q51 0 89 -39q39 -38 39 -89zM213 1579q0 -52 -38 -90t-90 -38q-50 0 -88 38t-38 90q0 53 37 90q36 38 89 38q52 0 90 -39q38 -38 38 -89zM555 0h-512v1365h512v-1365z" />
    <glyph glyph-name="ntilde" unicode="&#xf1;" 
d="M1109 1521q-94 -70 -175 -70q-57 0 -168 41t-167 41q-81 0 -172 -82v174q76 66 172 66q59 0 170 -41t170 -41q79 0 170 82v-170zM1493 0h-512l-426 546v-546h-512v1365h512l426 -546v546h512v-1365z" />
    <glyph glyph-name="ograve" unicode="&#xf2;" 
d="M981 1451l-768 85l171 171l597 -222v-34zM1493 683q0 -287 -222 -488q-213 -195 -503 -195t-503 195q-222 201 -222 488q0 285 222 488q214 194 503 194t503 -194q222 -203 222 -488zM1033 683q0 103 -81 180q-79 76 -184 76q-107 0 -186 -76t-79 -180t79 -180t186 -76
q106 0 185 76q80 77 80 180z" />
    <glyph glyph-name="oacute" unicode="&#xf3;" 
d="M1323 1536l-768 -85v34l597 222zM1493 683q0 -287 -222 -488q-213 -195 -503 -195t-503 195q-222 201 -222 488q0 285 222 488q214 194 503 194t503 -194q222 -203 222 -488zM1033 683q0 103 -81 180q-79 76 -184 76q-107 0 -186 -76t-79 -180t79 -180t186 -76
q106 0 185 76q80 77 80 180z" />
    <glyph glyph-name="ocircumflex" unicode="&#xf4;" 
d="M1265 1451h-277l-220 165l-220 -165h-277l342 256h310zM1493 683q0 -287 -222 -488q-213 -195 -503 -195t-503 195q-222 201 -222 488q0 285 222 488q214 194 503 194t503 -194q222 -203 222 -488zM1033 683q0 103 -81 180q-79 76 -184 76t-185 -76q-80 -77 -80 -180
q0 -104 79 -180t186 -76q106 0 185 76q80 77 80 180z" />
    <glyph glyph-name="otilde" unicode="&#xf5;" 
d="M1109 1521q-94 -70 -175 -70q-57 0 -168 41t-167 41q-81 0 -172 -82v174q76 66 172 66q59 0 170 -41t170 -41q79 0 170 82v-170zM1493 683q0 -287 -222 -488q-213 -195 -503 -195t-503 195q-222 201 -222 488q0 285 222 488q214 194 503 194t503 -194q222 -203 222 -488z
M1033 683q0 103 -81 180q-79 76 -184 76q-107 0 -186 -76t-79 -180t79 -180t186 -76q106 0 185 76q80 77 80 180z" />
    <glyph glyph-name="odieresis" unicode="&#xf6;" 
d="M1109 1579q0 -53 -38 -91q-37 -37 -90 -37q-50 0 -90 38q-38 38 -38 90q0 51 38 89q39 39 90 39q52 0 90 -39q38 -38 38 -89zM683 1579q0 -53 -38 -91q-37 -37 -90 -37q-52 0 -90 38t-38 90q0 51 38 89q37 39 90 39q51 0 89 -39q39 -38 39 -89zM1493 683
q0 -287 -222 -488q-213 -195 -503 -195t-503 195q-222 201 -222 488q0 285 222 488q214 194 503 194t503 -194q222 -203 222 -488zM1033 683q0 103 -81 180q-79 76 -184 76q-107 0 -186 -76t-79 -180t79 -180t186 -76q106 0 185 76q80 77 80 180z" />
    <glyph glyph-name="divide" unicode="&#xf7;" horiz-adv-x="768" 
d="M512 973q0 -51 -39 -90q-38 -38 -89 -38q-50 0 -90 38q-38 40 -38 90q0 51 38 89q39 39 90 39t89 -39q39 -38 39 -89zM725 555h-682v256h682v-256zM512 393q0 -53 -39 -90q-38 -38 -89 -38q-50 0 -90 38q-38 38 -38 90q0 51 38 89q39 39 90 39t89 -39q39 -38 39 -89z" />
    <glyph glyph-name="oslash" unicode="&#xf8;" 
d="M1582 1316l-230 -231q141 -179 141 -402q0 -287 -222 -488q-213 -195 -503 -195q-208 0 -391 111l-242 -241l-179 179l228 231q-141 178 -141 403q0 285 222 488q214 194 503 194q208 0 391 -111l242 243zM1033 683q0 36 -12 71l-320 -319q35 -8 67 -8q106 0 185 76
q80 77 80 180zM835 930q-33 9 -67 9q-105 0 -185 -76q-80 -77 -80 -180q0 -35 12 -72z" />
    <glyph glyph-name="ugrave" unicode="&#xf9;" 
d="M981 1451l-768 85l171 171l597 -222v-34zM1493 683q0 -287 -222 -488q-213 -195 -503 -195t-503 195q-222 201 -222 488v682h460v-682q0 -104 79 -180t186 -76q105 0 184 76q81 76 81 180v682h460v-682z" />
    <glyph glyph-name="uacute" unicode="&#xfa;" 
d="M1323 1536l-768 -85v34l597 222zM1493 683q0 -287 -222 -488q-213 -195 -503 -195t-503 195q-222 201 -222 488v682h460v-682q0 -104 79 -180t186 -76q105 0 184 76q81 76 81 180v682h460v-682z" />
    <glyph glyph-name="ucircumflex" unicode="&#xfb;" 
d="M1265 1451h-277l-220 165l-220 -165h-277l342 256h310zM1493 683q0 -287 -222 -488q-213 -195 -503 -195t-503 195q-222 201 -222 488v682h460v-682q0 -104 79 -180t186 -76q105 0 184 76q81 76 81 180v682h460v-682z" />
    <glyph glyph-name="udieresis" unicode="&#xfc;" 
d="M1109 1579q0 -53 -38 -91q-37 -37 -90 -37q-50 0 -90 38q-38 38 -38 90q0 51 38 89q39 39 90 39q52 0 90 -38t38 -90zM683 1579q0 -53 -38 -91q-37 -37 -90 -37q-52 0 -90 38t-38 90q0 51 38 89q37 39 90 39q52 0 90 -38t38 -90zM1493 683q0 -287 -222 -488
q-213 -195 -503 -195t-503 195q-222 201 -222 488v682h460v-682q0 -104 79 -180t186 -76q105 0 184 76q81 76 81 180v682h460v-682z" />
    <glyph glyph-name="ydieresis" unicode="&#xff;" horiz-adv-x="1690" 
d="M1186 1579q0 -53 -39 -90q-38 -38 -89 -38q-50 0 -90 38q-38 38 -38 90q0 51 38 89q39 39 90 39q52 0 90 -38t38 -90zM759 1579q0 -52 -38 -90t-90 -38q-50 0 -90 38q-38 38 -38 90q0 51 38 89q39 39 90 39q52 0 90 -38t38 -90zM1647 1365l-546 -938v-427h-512v427
l-546 938h580l222 -401l222 401h580z" />
    <glyph glyph-name="space" unicode=" " horiz-adv-x="768" 
 />
    <glyph glyph-name="Scaron" horiz-adv-x="1451" 
d="M1222 1707l-341 -256h-311l-341 256h276l220 -166l220 166h277zM1408 939h-543q-34 0 -34 -40q0 -10 5 -13l248 -186q153 -116 153 -311q0 -162 -132 -276q-133 -113 -296 -113h-766v427h507q34 0 34 41q0 7 -5 12l-231 169q-135 99 -135 302q0 167 130 290
q130 124 297 124h768v-426z" />
    <glyph glyph-name="Scaron" unicode="&#x160;" horiz-adv-x="1451" 
d="M1222 1707l-341 -256h-311l-341 256h276l220 -166l220 166h277zM1408 939h-543q-34 0 -34 -40q0 -10 5 -13l248 -186q153 -116 153 -311q0 -162 -132 -276q-133 -113 -296 -113h-766v427h507q34 0 34 41q0 7 -5 12l-231 169q-135 99 -135 302q0 167 130 290
q130 124 297 124h768v-426z" />
    <glyph glyph-name="scaron" horiz-adv-x="1451" 
d="M1222 1707l-341 -256h-311l-341 256h276l220 -166l220 166h277zM1408 939h-543q-34 0 -34 -40q0 -10 5 -13l248 -186q153 -116 153 -311q0 -162 -132 -276q-133 -113 -296 -113h-766v427h507q34 0 34 41q0 7 -5 12l-231 169q-135 99 -135 302q0 167 130 290
q130 124 297 124h768v-426z" />
    <glyph glyph-name="scaron" unicode="&#x161;" horiz-adv-x="1451" 
d="M1222 1707l-341 -256h-311l-341 256h276l220 -166l220 166h277zM1408 939h-543q-34 0 -34 -40q0 -10 5 -13l248 -186q153 -116 153 -311q0 -162 -132 -276q-133 -113 -296 -113h-766v427h507q34 0 34 41q0 7 -5 12l-231 169q-135 99 -135 302q0 167 130 290
q130 124 297 124h768v-426z" />
    <glyph glyph-name="minus" unicode="&#xad;" horiz-adv-x="768" 
d="M725 555h-682v256h682v-256z" />
    <glyph glyph-name="onequarter" unicode="&#xbc;" horiz-adv-x="1534" 
d="M1492 111h-43v-126h-239v126h-444l86 469h247l-46 -256h157v342h239v-342h43v-213zM1029 1266l-468 -1281l-320 114l467 1283zM367 683h-239v486h-85l85 196h239v-682z" />
    <glyph glyph-name="onehalf" unicode="&#xbd;" horiz-adv-x="1620" 
d="M1577 0h-725v215q0 86 64 150q65 65 149 65h256q26 0 26 26q0 30 -26 30h-427v197h470q84 0 149 -66q64 -65 64 -151t-64 -150q-65 -65 -149 -65h-256q-27 0 -26 -55h495v-196zM1029 1266l-468 -1281l-320 114l467 1283zM367 683h-239v486h-85l85 196h239v-682z" />
    <glyph glyph-name="threequarters" unicode="&#xbe;" horiz-adv-x="1841" 
d="M1799 128h-43v-128h-239v128h-444l86 469h247l-46 -256h157v342h239v-342h43v-213zM1319 1266l-467 -1281l-321 114l467 1283zM725 896q0 -87 -63 -150t-150 -63h-469v196h426q26 0 26 27q0 29 -26 29h-256v179h256q26 0 26 26q0 29 -26 29h-426v196h469q89 0 151 -63
q62 -64 62 -152q0 -71 -42 -126q42 -56 42 -128z" />
    <glyph glyph-name="multiply" unicode="&#xd7;" horiz-adv-x="748" 
d="M705 532l-181 -180l-150 150l-150 -150l-181 180l150 151l-150 150l181 181l150 -150l150 150l181 -181l-150 -150z" />
    <glyph glyph-name="Yacute" unicode="&#xdd;" horiz-adv-x="1690" 
d="M1399 1536l-768 -85v34l598 222zM1647 1365l-546 -938v-427h-512v427l-546 938h580l222 -401l222 401h580z" />
    <glyph glyph-name="yacute" unicode="&#xfd;" horiz-adv-x="1690" 
d="M1399 1536l-768 -85v34l598 222zM1647 1365l-546 -938v-427h-512v427l-546 938h580l222 -401l222 401h580z" />
    <glyph glyph-name="quotereversed" unicode="&#x201b;" horiz-adv-x="427" 
d="M384 1195q0 -70 -51 -121q-50 -50 -120 -50l52 -171q-57 4 -122 81q-49 63 -74.5 132t-25.5 129q0 68 51 119t119 51q69 0 120 -51t51 -119z" />
    </font>
</defs>
</svg>
